<?xml version="1.0" encoding="utf-8"?>
<!-- Generator: Adobe Illustrator 27.5.0, SVG Export Plug-In . SVG Version: 6.00 Build 0)  -->
<svg version="1.1" id="Layer_1" xmlns="http://www.w3.org/2000/svg" xmlns:xlink="http://www.w3.org/1999/xlink" x="0px" y="0px"
	 viewBox="0 0 800 800" style="enable-background:new 0 0 800 800;" xml:space="preserve">
<style type="text/css">
	.st0{fill:#5664D2;}
</style>
<path class="st0" d="M0,650.4C0,692,14.7,727.2,44,756c29.3,28.8,64.8,43.5,106.4,44h500c41.1,0,76.3-14.7,105.6-44
	c29.3-29.3,44-64.5,44-105.6v-500c0-41.6-14.7-77.1-44-106.4S691.5,0,650.4,0h-500C108.8,0,73.3,14.7,44,44S0,108.8,0,150.4L0,650.4
	L0,650.4z M100,650.4v-500c0-13.9,4.8-25.6,14.4-35.2s21.6-14.7,36-15.2h500c13.3,0,25.1,5.1,35.2,15.2
	c10.1,10.1,14.9,21.9,14.4,35.2v500c0,13.9-4.8,25.6-14.4,35.2S664.3,700,650.4,700h-500c-13.9,0-25.9-4.8-36-14.4
	S99.5,664.3,100,650.4L100,650.4z M150.4,600c0,13.9,4.8,25.9,14.4,36c9.6,10.1,21.3,14.9,35.2,14.4h400c13.9,0,25.6-4.8,35.2-14.4
	c9.6-9.6,14.7-21.6,15.2-36v-23.2c-3.7-7.5-13.1-29.9-28-67.2c-14.9-37.3-28.3-67.2-40-89.6c-11.7-22.4-22.4-40-32-52.8
	c-9.1-9.6-18.4-14.7-28-15.2c-9.6-0.5-19.2,2.7-28.8,9.6c-9.6,6.9-19.2,16.3-28.8,28c-9.6,11.7-19.5,24.8-29.6,39.2
	c-10.1,14.4-19.7,28.5-28.8,42.4c-9.1,13.9-18.7,27.2-28.8,40s-19.2,22.7-27.2,29.6c-8,6.9-17.1,10.7-27.2,11.2
	c-9.6,0-23.5-12-41.6-36c-2.7-3.2-6.7-8.3-12-15.2c-18.7-25.1-32-40.3-40-45.6c-12.8-8.5-22.7-5.6-29.6,8.8
	c-3.7,8.5-11.5,27.2-23.2,56c-11.7,28.8-20.5,50.1-26.4,64L150.4,600L150.4,600z M150.4,225.6c0,20.8,7.2,38.4,21.6,52.8
	s32,21.6,52.8,21.6c20.8,0,38.7-7.2,53.6-21.6s22.1-32,21.6-52.8s-7.7-38.7-21.6-53.6c-13.9-14.9-31.7-22.1-53.6-21.6
	s-39.5,7.7-52.8,21.6C158.7,185.9,151.5,203.7,150.4,225.6z"/>
</svg>
