<?xml version="1.0" encoding="UTF-8"?>
<svg id="Layer_2" data-name="Layer 2" xmlns="http://www.w3.org/2000/svg" viewBox="0 0 800 800">
  <defs>
    <style>
      .cls-1 {
        fill: #5664d2;
      }
    </style>
  </defs>
  <g id="Capa_1" data-name="Capa 1">
    <path class="cls-1" d="M33.81,460.43l52.43,.33c7.84,40.34,23.36,79.54,46.88,115.15l-37.24,36.91c-13.39,13.23-13.39,34.63-.33,48.02l40.18,40.67c13.23,13.39,34.63,13.39,48.02,.33l37.24-36.91c35.28,23.85,74.32,40.02,114.66,48.18l-.33,52.43c-.16,18.78,15.03,33.97,33.81,34.14l57.17,.33c18.78,.16,33.97-15.03,34.14-33.81l.33-52.43c40.34-7.84,79.54-23.36,115.15-46.88l36.91,37.24c13.23,13.39,34.63,13.39,48.02,.33l40.67-40.18c13.39-13.23,13.39-34.63,.33-48.02l-36.91-37.24c23.85-35.28,40.02-74.32,48.18-114.66l52.43,.33c18.78,.16,33.97-15.03,34.14-33.81l.33-57.17c.16-18.78-15.03-33.97-33.81-34.14l-52.43-.33c-7.84-40.34-23.36-79.54-46.88-115.15l37.24-36.91c13.39-13.23,13.39-34.63,.33-48.02l-40.18-40.67c-13.23-13.39-34.63-13.39-48.02-.33l-37.24,36.91c-35.28-23.85-74.32-40.02-114.66-48.18l.33-52.43c.16-18.78-15.03-33.97-33.81-34.14L373.7,0c-18.78-.16-33.97,15.03-34.14,33.81l-.49,52.43c-40.51,7.84-79.71,23.36-115.15,46.88l-36.91-37.24c-13.23-13.39-34.63-13.39-48.02-.33l-40.51,40.18c-13.39,13.23-13.39,34.63-.33,48.02l36.91,37.24c-23.85,35.28-40.02,74.32-48.18,114.66l-52.43-.33c-18.78-.16-33.97,15.03-34.14,33.81L0,426.3c-.16,18.62,15.03,33.97,33.81,34.14Zm259.04-168.72c59.78-59.13,155.98-58.64,215.11,1.14s58.64,155.98-1.14,215.11-155.98,58.64-215.11-1.14-58.64-155.98,1.14-215.11Z"/>
  </g>
</svg>