<?xml version="1.0" encoding="utf-8"?>
<!-- Generator: Adobe Illustrator 27.5.0, SVG Export Plug-In . SVG Version: 6.00 Build 0)  -->
<svg version="1.1" id="_x32_" xmlns="http://www.w3.org/2000/svg" xmlns:xlink="http://www.w3.org/1999/xlink" x="0px" y="0px"
	 viewBox="0 0 800 800" style="enable-background:new 0 0 800 800;" xml:space="preserve">
<style type="text/css">
	.st0{fill:#5664D2;}
</style>
<g>
	<path class="st0" d="M591.3,0H325.5h-20.6l-14.6,14.6L89.1,215.8l-14.6,14.6V251v414.9c0,74,60.2,134.2,134.2,134.2h382.5
		c74,0,134.2-60.2,134.2-134.2V134.2C725.5,60.2,665.3,0,591.3,0z M675.8,665.8c0,46.7-37.8,84.5-84.5,84.5H208.7
		c-46.7,0-84.5-37.8-84.5-84.5V250.9H255c38.9,0,70.4-31.5,70.4-70.4V49.7h265.8c46.7,0,84.5,37.8,84.5,84.5L675.8,665.8
		L675.8,665.8z"/>
	<path class="st0" d="M324.2,431.5c7.4-10.8,9.1-15.3,9.1-21.6c0-8.1-5.5-14.9-16.3-14.9h-68c-9.3,0-14.9,5.9-14.9,14
		s5.5,13.8,14.9,13.8h45.8v0.4l-53.1,78.3c-7.2,10.4-10,15.5-10,22.9c0,8.1,5.7,14.9,16.3,14.9h70.2c9.5,0,14.9-5.7,14.9-13.8
		s-5.3-14-14.9-14H270v-0.4L324.2,431.5z"/>
	<path class="st0" d="M387,393.7c-9.1,0-15.7,6.6-15.7,16.5V524c0,10,6.6,16.6,15.7,16.6c8.9,0,15.5-6.6,15.5-16.6V410.2
		C402.5,400.3,395.9,393.7,387,393.7z"/>
	<path class="st0" d="M505.2,395h-44.6c-8.5,0-13.6,5.5-13.6,13.8V524c0,10,6.6,16.6,15.7,16.6c8.9,0,15.5-6.6,15.5-16.6v-35
		c0-0.9,0.4-1.3,1.3-1.3h25.7c31.4,0,50.3-19.1,50.3-46.3C555.5,413.9,536.8,395,505.2,395z M503.3,460.8h-23.8
		c-0.9,0-1.3-0.4-1.3-1.3v-36.3c0-0.9,0.4-1.3,1.3-1.3h23.8c13.2,0,21,7.9,21,19.5C524.3,453.1,516.5,460.8,503.3,460.8z"/>
</g>
</svg>
